<svg width="32" height="32" viewBox="0 0 32 32" fill="none" xmlns="http://www.w3.org/2000/svg">
<path d="M0 8.07523C0 3.61541 3.61541 0 8.07523 0H23.9248C28.3846 0 32 3.61541 32 8.07523V23.9248C32 28.3846 28.3846 32 23.9248 32H8.07523C3.61541 32 0 28.3846 0 23.9248V8.07523Z" fill="white"/>
<path d="M6.18872 16.0757H5.87122V15.6721H6.18872C6.8394 15.6721 7.2941 15.4956 7.5528 15.1425C7.81934 14.7894 7.95262 14.3354 7.95262 13.7805C7.95262 13.192 7.83894 12.7464 7.6116 12.4437C7.38425 12.1411 7.06283 11.9898 6.64734 11.9898C6.10641 11.9898 5.73011 12.1999 5.51845 12.6203C5.31462 13.0322 5.2519 13.625 5.3303 14.3984L4.30724 14.1966C4.23668 13.7427 4.27196 13.3181 4.41307 12.923C4.56202 12.5278 4.82073 12.2083 5.18919 11.9645C5.56548 11.7123 6.05545 11.5862 6.6591 11.5862C7.23922 11.5862 7.70567 11.6913 8.05845 11.9015C8.41907 12.1033 8.68169 12.3723 8.84632 12.7086C9.01095 13.0365 9.09327 13.3938 9.09327 13.7805C9.09327 14.369 8.92472 14.8356 8.58762 15.1803C8.25836 15.525 7.78015 15.7562 7.15298 15.8739C7.81934 15.9832 8.32891 16.227 8.68169 16.6053C9.04231 16.9836 9.22262 17.4965 9.22262 18.1438C9.22262 18.5558 9.12854 18.9341 8.9404 19.2788C8.76009 19.6235 8.47786 19.901 8.09373 20.1111C7.71743 20.3129 7.22746 20.4138 6.62382 20.4138C6.05153 20.4138 5.5498 20.2709 5.11863 19.985C4.6953 19.6992 4.39347 19.1863 4.21317 18.4465L4.954 18.2195C5.01672 18.6819 5.12647 19.0434 5.28326 19.304C5.44789 19.5647 5.63996 19.7496 5.85946 19.8589C6.08681 19.9598 6.32592 20.0102 6.57678 20.0102C7.58024 20.0102 8.08197 19.3881 8.08197 18.1438C8.08197 17.5385 7.94086 17.0425 7.65863 16.6558C7.37641 16.269 6.88644 16.0757 6.18872 16.0757Z" fill="black"/>
<path d="M16.9055 19.9598V20.2877H14.1303V19.9598L14.777 19.8841C14.9025 19.8673 14.9769 19.8337 15.0005 19.7833C15.024 19.7328 15.0357 19.5605 15.0357 19.2662V16.1261C15.0357 15.504 14.9417 15.0668 14.7535 14.8146C14.5654 14.554 14.2949 14.4236 13.9421 14.4236C13.6834 14.4236 13.3973 14.5077 13.0837 14.6759C12.7701 14.844 12.4761 15.1719 12.2018 15.6595V19.2662C12.2018 19.5605 12.2135 19.7328 12.237 19.7833C12.2606 19.8337 12.335 19.8673 12.4605 19.8841L13.1072 19.9598V20.2877H10.332V19.9598L10.9788 19.8841C11.1042 19.8673 11.1787 19.8337 11.2022 19.7833C11.2257 19.7328 11.2375 19.5605 11.2375 19.2662V15.0668C11.2375 14.7725 11.2257 14.6002 11.2022 14.5498C11.1787 14.4993 11.1042 14.4657 10.9788 14.4489L10.332 14.3858V14.0453H12.143V15.0668C12.4252 14.6633 12.7427 14.3732 13.0955 14.1966C13.4561 14.0117 13.8167 13.9192 14.1773 13.9192C14.7574 13.9192 15.2043 14.1126 15.5179 14.4993C15.8393 14.8776 16 15.4157 16 16.1135V19.2662C16 19.5605 16.0118 19.7328 16.0353 19.7833C16.0588 19.8337 16.1333 19.8673 16.2587 19.8841L16.9055 19.9598Z" fill="black"/>
<path d="M23.0695 16.29H20.8353V18.7366H20.4237V16.29H18.2012V15.8739H20.4237V13.4148H20.8353V15.8739H23.0695V16.29Z" fill="black"/>
<path d="M24.4441 12.759L25.9963 11.7123H26.8312V19.2662C26.8312 19.5605 26.843 19.7328 26.8665 19.7833C26.89 19.8337 26.9645 19.8673 27.0899 19.8841L27.7367 19.9598V20.2877H24.6675V19.9598L25.5495 19.8841C25.6749 19.8757 25.7494 19.8463 25.7729 19.7959C25.7964 19.737 25.8082 19.5605 25.8082 19.2662V12.3176L24.644 13.0995L24.4441 12.759Z" fill="black"/>
</svg>
