<svg width="800" height="800" viewBox="0 0 800 800" fill="none" xmlns="http://www.w3.org/2000/svg">
<g filter="url(#filter0_d_4500_31)">
<rect x="81" y="103" width="638" height="638" rx="161" fill="white"/>
</g>
<path d="M204.388 423.509H198.058V415.463H204.388C217.361 415.463 226.426 411.943 231.584 404.903C236.898 397.863 239.555 388.811 239.555 377.749C239.555 366.015 237.289 357.131 232.756 351.097C228.224 345.063 221.815 342.046 213.531 342.046C202.747 342.046 195.244 346.236 191.024 354.617C186.96 362.83 185.71 374.648 187.273 390.069L166.876 386.046C165.469 376.994 166.172 368.53 168.986 360.651C171.955 352.773 177.113 346.404 184.459 341.543C191.962 336.514 201.731 334 213.766 334C225.332 334 234.632 336.095 241.665 340.286C248.855 344.309 254.091 349.672 257.374 356.377C260.656 362.914 262.297 370.038 262.297 377.749C262.297 389.482 258.937 398.785 252.216 405.657C245.651 412.53 236.117 417.139 223.613 419.486C236.898 421.665 247.058 426.526 254.091 434.069C261.281 441.611 264.876 451.836 264.876 464.743C264.876 472.956 263 480.499 259.249 487.371C255.654 494.244 250.027 499.775 242.369 503.966C234.866 507.989 225.097 510 213.062 510C201.652 510 191.649 507.15 183.053 501.451C174.612 495.752 168.595 485.528 165 470.777L179.77 466.251C181.021 475.47 183.209 482.678 186.335 487.874C189.617 493.07 193.447 496.758 197.823 498.937C202.356 500.949 207.123 501.954 212.125 501.954C232.131 501.954 242.134 489.55 242.134 464.743C242.134 452.674 239.321 442.785 233.694 435.074C228.067 427.364 218.298 423.509 204.388 423.509Z" fill="black"/>
<path d="M418.053 500.949V507.486H362.722V500.949L375.617 499.44C378.118 499.105 379.603 498.434 380.072 497.429C380.541 496.423 380.775 492.987 380.775 487.12V424.514C380.775 412.11 378.9 403.394 375.148 398.366C371.397 393.17 366.005 390.571 358.971 390.571C353.813 390.571 348.108 392.248 341.856 395.6C335.604 398.952 329.743 405.49 324.273 415.211V487.12C324.273 492.987 324.507 496.423 324.976 497.429C325.445 498.434 326.93 499.105 329.43 499.44L342.325 500.949V507.486H286.995V500.949L299.89 499.44C302.39 499.105 303.875 498.434 304.344 497.429C304.813 496.423 305.048 492.987 305.048 487.12V403.394C305.048 397.528 304.813 394.091 304.344 393.086C303.875 392.08 302.39 391.41 299.89 391.074L286.995 389.817V383.029H323.1V403.394C328.727 395.349 335.057 389.566 342.091 386.046C349.281 382.358 356.47 380.514 363.66 380.514C375.226 380.514 384.136 384.37 390.388 392.08C396.796 399.623 400 410.35 400 424.263V487.12C400 492.987 400.235 496.423 400.703 497.429C401.172 498.434 402.657 499.105 405.158 499.44L418.053 500.949Z" fill="black"/>
<path d="M540.949 427.783H496.403V476.56H488.197V427.783H443.886V419.486H488.197V370.457H496.403V419.486H540.949V427.783Z" fill="black"/>
<path d="M568.354 357.383L599.301 336.514H615.947V487.12C615.947 492.987 616.182 496.423 616.651 497.429C617.12 498.434 618.604 499.105 621.105 499.44L634 500.949V507.486H572.808V500.949L590.392 499.44C592.893 499.272 594.378 498.686 594.847 497.68C595.316 496.507 595.55 492.987 595.55 487.12V348.583L572.34 364.171L568.354 357.383Z" fill="black"/>
<defs>
<filter id="filter0_d_4500_31" x="77" y="103" width="646" height="646" filterUnits="userSpaceOnUse" color-interpolation-filters="sRGB">
<feFlood flood-opacity="0" result="BackgroundImageFix"/>
<feColorMatrix in="SourceAlpha" type="matrix" values="0 0 0 0 0 0 0 0 0 0 0 0 0 0 0 0 0 0 127 0" result="hardAlpha"/>
<feOffset dy="4"/>
<feGaussianBlur stdDeviation="2"/>
<feComposite in2="hardAlpha" operator="out"/>
<feColorMatrix type="matrix" values="0 0 0 0 0 0 0 0 0 0 0 0 0 0 0 0 0 0 0.25 0"/>
<feBlend mode="normal" in2="BackgroundImageFix" result="effect1_dropShadow_4500_31"/>
<feBlend mode="normal" in="SourceGraphic" in2="effect1_dropShadow_4500_31" result="shape"/>
</filter>
</defs>
</svg>
